<svg xmlns="http://www.w3.org/2000/svg" xmlns:xlink="http://www.w3.org/1999/xlink" version="1.1" x="0px" y="0px" viewBox="0 0 100 125" style="enable-background:new 0 0 100 100;" xml:space="preserve"><style type="text/css">
	.st0{fill:#1D1D1B;}
</style><path class="st0" d="M94.1,5H5.9C5.4,5,5,5.4,5,5.9v88.2C5,94.6,5.4,95,5.9,95h88.2c0.5,0,0.9-0.4,0.9-0.9V5.9C95,5.4,94.6,5,94.1,5  z M6.8,82.6V72.5h9.7v10.1H6.8z M49.6,39.4v10.1H39.5V39.4H49.6z M71.6,39.4v10.1H61.5V39.4H71.6z M50.5,50.5h10.1v10.1H50.5V50.5z   M28.5,50.5h10.1v10.1H28.5V50.5z M27.6,49.5H17.5V39.4h10.1V49.5z M72.6,50.5h10.1v10.1H72.6V50.5z M82.7,38.5H72.6V28.4h10.1V38.5  z M60.6,38.5H50.5V28.4h10.1V38.5z M38.6,38.5H28.5V28.4h10.1V38.5z M17.5,61.5h10.1v10.1H17.5V61.5z M28.5,72.5h10.1v10.1H28.5  V72.5z M39.5,61.5h10.1v10.1H39.5V61.5z M50.5,72.5h10.1v10.1H50.5V72.5z M61.5,61.5h10.1v10.1H61.5V61.5z M71.6,17.4v10.1H61.5  V17.4H71.6z M49.6,17.4v10.1H39.5V17.4H49.6z M27.6,27.5H17.5V17.4h10.1V27.5z M16.5,50.5v10.1H6.8V50.5H16.5z M72.6,72.5h10.1v10.1  H72.6V72.5z M83.6,49.5V39.4h9.6v10.1H83.6z M83.6,27.5V17.4h9.6v10.1H83.6z M16.5,28.4v10.1H6.8V28.4H16.5z M83.6,71.6V61.5h9.6  v10.1H83.6z M82.7,16.5H72.6V6.8h10.1V16.5z M60.6,16.5H50.5V6.8h10.1V16.5z M38.6,16.5H28.5V6.8h10.1V16.5z M17.5,83.5h10.1v9.6  H17.5V83.5z M39.5,83.5h10.1v9.6H39.5V83.5z M61.5,83.5h10.1v9.6H61.5V83.5z M16.5,6.8v9.6H6.8V6.8H16.5z M83.6,93.2v-9.6h9.6v9.6  H83.6z"/></svg>